<svg xmlns="http://www.w3.org/2000/svg" width="32" height="48" viewBox="0 0 32 48">
    <defs>
        <linearGradient id="myGradient" x1="0%" y1="0%" x2="0%" y2="100%">
            <stop offset="0%" style="stop-color: #7D467D; stop-opacity: 1" />
            <stop offset="100%" style="stop-color: #800080; stop-opacity: 1" />
        </linearGradient>
    </defs>
    <path d="M16 0C7.16 0 0 7.16 0 16c0 10.13 12.94 31.26 15.47 35.06 0.34 0.49 0.89 0.8 1.53 0.8 0.63 0 1.19-0.31 1.53-0.80C19.06 47.26 32 26.13 32 16 32 7.16 24.84 0 16 0zM16 23C13.24 23 11 20.76 11 18S13.24 13 16 13s5 2.24 5 5-2.24 5-5 5z" fill="url(#myGradient)"/>
</svg>
